<?xml version="1.0" standalone="no"?>
<!DOCTYPE svg PUBLIC "-//W3C//DTD SVG 20010904//EN"
 "http://www.w3.org/TR/2001/REC-SVG-20010904/DTD/svg10.dtd">
<svg version="1.0" xmlns="http://www.w3.org/2000/svg"
 width="864.000000pt" height="306.000000pt" viewBox="0 0 864.000000 306.000000"
 preserveAspectRatio="xMidYMid meet">
<metadata>
Created by potrace 1.10, written by Peter Selinger 2001-2011
</metadata>
<g transform="translate(0.000000,306.000000) scale(0.100000,-0.100000)"
fill="#228b22" stroke="none">
<path d="M0 1530 l0 -1530 4320 0 4320 0 0 1530 0 1530 -4320 0 -4320 0 0
-1530z m1414 1325 c5 -14 9 -14 42 0 31 13 133 15 740 15 635 0 704 -2 712
-16 8 -15 12 -15 40 0 45 23 757 24 802 1 29 -15 46 -47 35 -65 -4 -6 -158 -9
-443 -6 -240 2 -445 4 -454 3 -35 0 -1383 0 -1403 0 -34 1 -59 1 -85 1 -645
-8 -1165 -7 -1176 3 -14 12 -19 60 -7 72 3 4 273 7 599 7 521 0 593 -2 598
-15z m3024 3 c9 -9 15 -9 24 0 9 9 175 12 684 12 592 0 673 -2 678 -15 5 -14
9 -14 42 0 31 13 133 15 740 15 635 0 704 -2 712 -16 8 -15 12 -15 40 0 28 14
89 16 544 14 l513 -3 3 -28 c7 -60 30 -57 -562 -53 -297 2 -550 4 -561 3 -11
0 -666 0 -1455 1 -789 0 -1442 0 -1450 0 -8 0 -124 -2 -257 -4 l-243 -5 -36
34 c-22 20 -34 39 -30 45 10 17 597 17 614 0z m2940 -314 c50 -14 5 -64 -73
-82 -27 -7 -75 -15 -106 -18 -50 -6 -58 -4 -77 17 -12 12 -22 27 -22 31 0 12
32 44 50 51 21 7 200 8 228 1z m349 -20 c39 -29 42 -66 7 -89 -21 -14 -31 -15
-51 -6 -13 6 -47 14 -76 17 -72 8 -121 33 -125 63 -2 13 2 28 10 33 7 5 57 7
110 6 80 -3 102 -7 125 -24z m-887 -70 l49 -26 45 21 c40 20 49 21 73 9 50
-24 38 -61 -39 -118 -23 -17 -25 -25 -21 -60 14 -106 -106 -230 -224 -230 -39
0 -43 -3 -59 -40 -19 -43 -41 -55 -79 -46 -31 8 -43 58 -21 91 21 32 20 58 -4
80 -32 29 -54 99 -47 155 12 97 60 154 167 194 30 11 112 -4 160 -30z m1108
-36 c66 -47 121 -98 128 -120 7 -24 -21 -68 -45 -68 -10 0 -45 21 -79 48 -33
26 -72 55 -86 65 -38 26 -45 66 -16 89 31 25 45 23 98 -14z m-7102 -77 c25
-15 33 -28 38 -63 7 -53 10 -343 3 -355 -3 -4 -2 -35 2 -68 l6 -60 50 -8 c61
-9 70 -9 117 -1 55 9 98 -24 98 -76 0 -58 -34 -72 -183 -78 -141 -5 -197 2
-225 29 -21 19 -22 25 -21 333 1 172 4 318 8 323 6 10 60 42 71 43 3 0 19 -9
36 -19z m682 2 c39 -22 52 -47 91 -163 18 -52 36 -103 41 -112 6 -10 10 -25
10 -34 0 -9 7 -30 14 -47 30 -64 86 -246 86 -276 0 -74 -94 -109 -145 -54 -14
15 -25 34 -25 41 0 7 -7 24 -16 37 -15 23 -22 25 -97 25 -83 0 -106 -11 -107
-52 0 -9 -12 -30 -26 -47 -20 -24 -34 -31 -63 -31 -20 0 -45 6 -54 13 -35 25
-38 94 -7 162 5 11 32 90 60 175 28 85 55 162 60 171 5 9 12 33 15 53 4 20 11
39 16 42 5 3 9 12 9 21 0 22 37 66 68 79 36 16 36 16 70 -3z m790 -10 c20 -12
23 -23 23 -71 0 -31 2 -152 5 -269 6 -247 1 -275 -56 -327 -46 -42 -68 -45
-97 -13 -27 29 -91 136 -127 212 -41 89 -42 90 -59 93 -26 5 -36 -63 -21 -156
9 -59 -4 -130 -27 -153 -29 -29 -92 -26 -117 5 -18 23 -19 46 -21 331 -2 259
0 310 13 330 19 29 61 40 97 24 30 -12 109 -111 150 -189 13 -24 30 -50 37
-58 6 -7 12 -24 12 -36 0 -30 35 -63 46 -44 5 7 7 73 6 146 -3 142 3 162 50
189 25 13 50 9 86 -14z m1355 11 c37 -18 69 -77 82 -150 4 -21 15 -55 25 -74
27 -53 49 -122 48 -153 0 -15 7 -36 16 -46 9 -9 16 -22 16 -27 0 -5 7 -22 15
-37 8 -15 17 -43 21 -63 3 -19 10 -37 15 -40 5 -3 9 -21 9 -41 0 -47 -32 -83
-74 -83 -66 0 -78 11 -114 103 -11 27 -13 27 -101 27 -84 0 -90 -1 -96 -22
-23 -81 -50 -108 -106 -108 -65 0 -102 74 -64 124 8 11 15 34 15 52 0 18 5 36
10 39 6 3 10 15 10 27 0 11 6 34 14 51 8 18 24 64 36 102 12 39 26 79 30 90 5
11 18 49 30 85 30 93 49 126 84 143 40 20 39 20 79 1z m957 -4 c17 -12 46 -56
72 -109 23 -50 49 -92 55 -95 8 -3 28 28 55 82 55 115 62 122 113 122 56 0 76
-17 82 -71 5 -45 -8 -73 -138 -319 -13 -24 -19 -56 -19 -102 0 -37 -4 -77 -9
-90 -4 -13 -5 -32 -1 -43 4 -12 2 -31 -7 -47 -12 -26 -18 -28 -71 -28 -81 0
-92 20 -92 165 l0 107 -86 172 c-75 149 -85 177 -79 205 4 21 18 39 38 52 40
24 52 24 87 -1z m1153 9 c31 -16 57 -50 57 -76 0 -21 -65 -139 -115 -208 -39
-54 -38 -62 17 -153 29 -48 58 -93 65 -100 7 -7 13 -18 13 -23 0 -6 7 -17 15
-25 8 -9 15 -33 15 -55 0 -52 -27 -79 -78 -79 -47 0 -71 23 -137 133 -25 42
-50 77 -53 77 -9 -1 -64 -84 -91 -137 -11 -23 -31 -49 -43 -57 -23 -17 -84
-21 -105 -8 -19 12 -35 64 -28 92 7 26 72 122 87 128 4 2 8 11 8 19 0 9 14 38
30 65 17 26 30 55 30 64 0 8 -25 53 -56 99 -90 138 -104 210 -45 234 22 10 38
10 68 1 33 -10 44 -22 81 -85 63 -108 63 -108 111 -28 54 89 61 97 96 116 37
20 32 19 58 6z m-5196 -51 c44 -32 98 -123 88 -150 -2 -7 -9 -47 -14 -89 -10
-90 -34 -129 -95 -158 -46 -21 -125 -36 -172 -32 -38 3 -44 -12 -44 -121 0
-71 -2 -78 -27 -98 -22 -17 -35 -20 -68 -15 -22 4 -46 14 -53 23 -9 12 -12 93
-12 327 0 390 -14 367 222 352 125 -8 134 -10 175 -39z m2257 21 c45 -35 30
-96 -28 -119 -15 -5 -67 -10 -116 -10 -86 0 -90 -1 -96 -24 -15 -60 1 -95 49
-110 17 -5 16 -10 -12 -44 -28 -36 -30 -46 -33 -128 l-3 -89 45 -5 c25 -3 55
-11 67 -18 12 -7 49 -12 83 -12 56 0 61 -2 70 -26 13 -33 -5 -73 -40 -91 -15
-8 -64 -13 -120 -13 -101 0 -108 3 -169 58 -16 15 -46 40 -65 55 l-36 29 0
263 0 264 26 20 c25 19 40 21 189 21 149 0 164 -2 189 -21z m133 -1 c27 -31
50 -105 36 -119 -16 -16 -81 0 -98 24 -21 30 -19 69 5 95 26 27 32 27 57 0z
m168 -7 c16 -10 32 -25 33 -35 4 -19 -63 -96 -83 -96 -16 1 -51 63 -59 103 -5
28 -3 38 11 46 21 12 56 5 98 -18z m240 3 c53 -57 15 -112 -84 -121 l-60 -6
-3 -258 -3 -257 -24 -21 c-34 -29 -85 -28 -116 4 -24 23 -25 28 -25 179 0 156
9 206 37 206 22 0 26 26 8 53 -15 23 -15 28 -1 54 8 15 37 50 65 78 50 48 52
49 84 37 18 -7 42 -12 53 -12 19 1 19 1 -1 16 -11 8 -36 19 -57 25 -37 10 -51
32 -25 42 6 3 38 6 70 6 50 1 61 -2 82 -25z m1002 -12 c67 -53 83 -87 83 -176
0 -87 -22 -139 -72 -172 -30 -20 -36 -44 -15 -66 15 -16 81 -115 96 -145 17
-33 13 -58 -14 -87 -32 -35 -93 -36 -129 -2 -15 13 -26 28 -26 33 0 6 -8 19
-17 31 -10 12 -40 57 -68 101 -27 44 -56 83 -63 86 -28 11 -35 -7 -29 -79 8
-93 0 -138 -30 -170 -29 -32 -84 -35 -112 -7 -17 17 -19 40 -20 330 l-2 311
26 26 26 26 162 -4 163 -3 41 -33z m3157 2 c21 -8 21 -50 0 -62 -21 -12 -205
-3 -221 10 -20 16 -15 48 10 58 22 10 181 6 211 -6z m-373 -44 c10 -6 19 -18
19 -27 0 -20 -28 -53 -45 -53 -6 0 -41 -20 -78 -45 -37 -25 -72 -45 -77 -45
-5 0 -14 10 -21 21 -18 34 3 59 94 111 94 55 83 51 108 38z m608 -44 c62 -38
121 -92 121 -110 0 -7 -6 -21 -14 -31 -13 -18 -14 -18 -42 0 -16 10 -33 22
-39 27 -5 5 -36 27 -67 49 -43 30 -58 46 -58 64 0 21 11 32 34 34 4 1 34 -14
65 -33z m432 -71 c15 -22 37 -60 49 -85 12 -25 25 -52 29 -60 13 -23 -15 -70
-42 -70 -33 0 -43 10 -82 80 -69 127 -70 127 -57 155 10 22 18 26 44 23 25 -2
39 -13 59 -43z m-5383 -111 c53 -60 3 -124 -97 -124 -85 0 -104 43 -49 106 53
60 102 67 146 18z m4611 -8 c24 -29 -13 -66 -67 -66 -16 0 -49 -7 -73 -15 -57
-20 -89 -13 -89 20 0 24 31 45 100 68 33 11 118 7 129 -7z m-543 -30 c4 -16
-4 -42 -24 -80 -17 -30 -33 -69 -37 -86 -11 -51 -74 -65 -76 -16 -3 48 23 123
56 163 6 7 16 19 23 28 20 23 51 19 58 -9z m744 -21 c50 -32 120 -104 120
-125 0 -20 -19 -40 -39 -40 -8 0 -33 18 -55 39 -23 21 -59 55 -81 74 -39 35
-40 35 -21 56 24 26 28 26 76 -4z m371 -5 c10 -6 19 -15 19 -21 0 -6 6 -25 14
-42 53 -115 56 -139 24 -162 -22 -15 -24 -14 -45 12 -12 15 -25 44 -28 65 -4
21 -10 40 -14 43 -5 2 -14 25 -21 51 -11 39 -11 47 1 55 18 11 26 11 50 -1z
m-1436 -110 c15 -16 17 -29 10 -72 -4 -29 -10 -80 -14 -113 -5 -50 -10 -61
-30 -71 -31 -16 -69 1 -77 33 -4 12 -2 62 4 109 8 66 15 91 33 110 27 29 50
31 74 4z m563 -16 c2 -18 -3 -38 -11 -46 -20 -20 -43 -67 -52 -105 -8 -40 -18
-47 -45 -33 -30 16 -26 73 10 145 34 65 45 76 75 73 14 -2 21 -12 23 -34z
m279 -24 c29 -35 37 -36 70 -10 14 11 34 20 45 20 25 0 39 -40 28 -79 -10 -35
1 -51 48 -70 54 -23 52 -58 -4 -84 -38 -19 -53 -42 -35 -60 6 -6 11 -26 11
-44 0 -26 -5 -34 -25 -39 -16 -4 -34 0 -50 10 -33 22 -52 20 -66 -6 -12 -24
-44 -58 -54 -58 -13 0 -45 42 -45 59 0 43 -10 51 -65 51 -45 0 -55 3 -60 20
-7 22 4 47 34 74 l21 20 -28 30 c-54 57 -46 85 24 91 36 4 54 17 54 42 1 65
54 84 97 33z m903 20 c25 -13 38 -61 41 -145 3 -104 1 -111 -27 -124 -36 -16
-74 8 -74 47 0 15 -5 61 -11 103 -11 67 -10 78 6 102 18 29 35 33 65 17z
m-5826 -155 c20 -31 20 -35 -3 -35 -24 0 -45 25 -37 45 8 22 21 19 40 -10z
m5322 8 c14 -14 16 -30 11 -90 -7 -89 -30 -135 -67 -131 -27 3 -27 -3 -14 148
8 88 31 112 70 73z m-1034 -45 c21 -17 43 -205 26 -225 -14 -17 -18 -16 -46 5
-18 14 -24 33 -33 105 -10 79 -9 91 7 108 20 22 25 23 46 7z m1316 -96 c2 -40
10 -64 33 -94 42 -59 41 -121 -4 -180 -35 -46 -104 -87 -151 -88 -17 0 -42
-12 -63 -31 -37 -32 -50 -33 -67 -6 -8 12 -6 25 8 51 18 33 18 34 -8 75 -66
104 1 234 132 256 23 4 42 11 42 15 0 5 5 21 10 35 8 21 16 26 38 23 25 -3 27
-6 30 -56z m-1001 -64 c5 -26 8 -27 44 -22 29 5 46 1 72 -14 60 -38 70 -54 76
-134 1 -5 7 -8 15 -8 15 0 66 -38 66 -49 0 -17 -50 -31 -77 -20 -22 8 -32 6
-52 -9 -14 -10 -42 -24 -62 -31 -79 -26 -172 51 -171 140 1 22 6 47 13 55 7 9
9 31 5 61 -8 58 13 90 46 70 10 -7 22 -24 25 -39z m-523 -3 c8 -9 18 -32 22
-53 4 -20 13 -51 21 -69 16 -40 17 -95 1 -111 -16 -16 -63 -15 -75 1 -14 18
-41 96 -53 154 -14 65 -2 93 40 93 16 0 35 -7 44 -15z m1744 -25 c26 -25 27
-44 6 -107 -28 -83 -53 -132 -74 -143 -50 -27 -92 26 -66 83 30 66 46 110 46
128 0 22 34 59 53 59 7 0 23 -9 35 -20z m-3818 -90 c21 0 47 -54 54 -110 3
-25 16 -66 30 -90 13 -25 34 -74 46 -110 12 -36 25 -72 30 -81 5 -9 12 -33 15
-53 4 -20 11 -38 15 -41 5 -3 11 -23 15 -45 4 -22 11 -42 16 -46 5 -3 9 -21 9
-41 0 -47 -32 -83 -74 -83 -66 0 -78 11 -114 103 -11 27 -13 27 -102 27 -89 0
-90 0 -96 -27 -17 -66 -53 -103 -103 -103 -44 0 -81 33 -81 73 0 27 51 192 70
228 5 9 12 33 15 53 4 20 11 39 16 42 5 3 9 12 9 21 0 8 16 49 35 90 19 41 35
88 35 105 0 34 34 88 56 88 9 0 22 7 30 15 14 13 18 13 37 0 12 -8 28 -15 37
-15z m973 15 c43 -18 62 -64 54 -130 -3 -25 -2 -47 4 -50 5 -4 28 15 52 41
142 160 165 173 222 130 43 -33 47 -77 12 -116 -12 -14 -35 -41 -51 -60 -15
-19 -50 -58 -77 -87 -50 -53 -60 -77 -34 -86 22 -9 105 -129 105 -153 0 -12
-7 -24 -15 -28 -8 -3 -15 -14 -15 -25 0 -11 -4 -23 -10 -26 -5 -3 -10 -14 -10
-24 0 -10 -6 -24 -14 -30 -17 -15 -28 -4 -106 103 -70 96 -84 95 -65 -6 10
-51 -3 -126 -26 -149 -28 -28 -84 -25 -113 6 -23 24 -23 27 -25 329 -2 205 1
312 9 325 8 16 46 44 66 51 1 0 17 -7 37 -15z m-1396 -44 c68 -46 93 -95 93
-188 0 -60 -4 -76 -32 -123 -45 -75 -118 -117 -212 -123 -36 -2 -70 -7 -73
-11 -7 -6 -11 -56 -12 -129 -1 -29 -8 -46 -30 -68 -35 -34 -68 -37 -105 -8
l-26 20 0 308 0 308 25 27 26 28 147 -4 147 -3 52 -34z m1116 7 c65 -51 82
-84 85 -175 5 -95 -14 -141 -73 -182 -30 -20 -33 -26 -23 -45 6 -11 14 -23 17
-26 9 -8 76 -112 90 -141 25 -52 -16 -109 -79 -109 -40 0 -58 12 -88 59 -9 14
-20 31 -25 36 -4 6 -31 46 -59 90 -59 92 -68 100 -87 80 -11 -11 -14 -40 -13
-119 1 -102 0 -106 -25 -126 -33 -26 -87 -26 -112 -1 -19 19 -20 36 -20 330 0
171 2 318 6 327 11 28 45 34 209 31 158 -2 161 -2 197 -29z m2505 5 c3 -23
-34 -57 -103 -91 -60 -30 -91 -35 -109 -17 -12 13 -13 21 -4 40 6 14 15 25 20
25 17 0 116 49 123 60 4 6 21 10 38 8 24 -2 33 -9 35 -25z m-781 -85 c15 -17
49 -55 76 -83 26 -29 47 -59 47 -67 0 -16 -20 -28 -46 -28 -21 0 -98 74 -134
128 -28 43 -29 47 -13 64 23 25 37 23 70 -14z m-156 -169 c79 -89 93 -113 79
-138 -12 -23 -43 -35 -69 -26 -22 7 -111 107 -134 151 -16 31 -15 33 8 58 13
14 30 26 38 26 8 0 43 -32 78 -71z m1400 31 c43 -23 19 -79 -76 -174 -37 -36
-54 -46 -80 -46 -39 0 -59 21 -52 52 8 30 150 178 172 178 9 0 25 -5 36 -10z
m-406 -80 c0 -39 -95 -81 -210 -93 -15 -1 -21 5 -23 24 -3 23 3 30 41 48 24
11 50 21 58 21 8 1 25 7 39 15 14 8 41 14 60 12 30 -2 35 -6 35 -27z m-475
-15 c83 -19 100 -29 100 -56 0 -38 -31 -40 -168 -11 -45 10 -82 36 -82 58 0
20 41 44 59 35 9 -4 50 -16 91 -26z m600 -155 c23 -23 24 -33 10 -60 -11 -21
-64 -50 -90 -50 -10 0 -23 -6 -29 -13 -6 -8 -29 -19 -52 -26 -34 -10 -44 -10
-65 4 -13 8 -24 18 -24 21 0 13 31 64 40 64 13 0 50 17 105 49 60 35 79 37
105 11z m-922 -28 c3 -20 0 -23 -20 -20 -15 2 -24 11 -26 26 -3 20 0 23 20 20
15 -2 24 -11 26 -26z m139 -2 c68 -32 79 -46 69 -85 -5 -20 -13 -25 -36 -25
-16 0 -31 4 -34 9 -4 5 -24 12 -45 16 -22 3 -47 15 -56 25 -15 16 -15 23 -4
54 7 20 20 36 28 36 8 0 43 -14 78 -30z m-1259 -69 c23 -29 -1 -80 -38 -81
-12 0 -14 10 -12 45 4 40 2 44 -14 38 -17 -6 -17 -5 -5 10 16 20 49 14 69 -12z
m1674 -3 c10 -4 22 -17 28 -28 9 -16 6 -25 -14 -45 -23 -23 -32 -25 -118 -25
-75 0 -99 4 -125 20 -42 25 -43 54 -2 79 27 17 45 19 123 14 50 -3 99 -10 108
-15z m-6472 -514 c14 0 197 1 408 0 210 0 398 0 417 0 19 0 169 -1 333 -1 163
0 313 0 332 0 29 1 735 0 828 0 15 0 349 0 742 1 393 0 731 0 750 0 43 -1 632
-1 680 -1 19 1 207 1 418 0 459 0 362 0 830 0 213 1 398 0 412 0 14 0 288 1
609 2 364 2 592 0 603 -6 21 -11 24 -52 5 -67 -9 -8 -1189 -11 -4095 -11
l-4082 0 -15 22 c-19 27 -19 32 0 50 12 13 71 15 407 12 216 -1 404 -2 418 -1z"/>
<path d="M6670 2393 c-45 -19 -72 -55 -78 -108 -6 -53 21 -113 57 -127 14 -6
34 -14 43 -19 26 -13 55 -11 91 7 60 31 72 52 72 125 0 75 -15 100 -74 125
-41 17 -65 17 -111 -3z"/>
<path d="M1463 1968 c-12 -46 -6 -58 30 -58 24 0 32 24 20 63 -13 48 -37 46
-50 -5z"/>
<path d="M3614 2023 c-10 -15 -18 -46 -18 -68 -1 -39 0 -40 38 -43 38 -3 38
-3 31 25 -4 15 -9 47 -12 71 -6 49 -14 52 -39 15z"/>
<path d="M356 2175 c-9 -25 -7 -128 3 -144 10 -15 86 -10 121 9 24 13 35 64
20 100 -14 33 -22 37 -88 46 -41 5 -50 3 -56 -11z"/>
<path d="M4136 2174 c-11 -30 -6 -91 9 -104 18 -15 103 -8 134 12 46 28 32 81
-26 97 -57 16 -110 14 -117 -5z"/>
<path d="M7367 1680 c-9 -11 -17 -35 -17 -53 0 -27 6 -36 34 -51 29 -15 37
-16 57 -4 54 30 62 66 24 103 -30 31 -74 33 -98 5z"/>
<path d="M7953 1444 c-85 -42 -58 -164 36 -164 93 0 129 104 54 155 -44 29
-48 30 -90 9z"/>
<path d="M7106 1375 c-31 -48 -10 -95 42 -95 31 1 72 31 72 54 0 23 -48 66
-74 66 -14 0 -30 -10 -40 -25z"/>
<path d="M4433 1050 c-3 -17 -10 -33 -14 -36 -5 -3 -9 -18 -9 -35 0 -27 3 -29
35 -29 19 0 35 5 35 11 0 17 -31 119 -36 119 -2 0 -7 -14 -11 -30z"/>
<path d="M3851 1212 c-6 -11 -11 -43 -11 -71 0 -67 18 -85 79 -77 61 8 81 29
81 82 0 52 -21 70 -92 80 -40 6 -47 4 -57 -14z"/>
<path d="M4944 1207 c-3 -13 -4 -41 -2 -63 3 -36 5 -39 37 -42 85 -8 145 26
132 75 -8 32 -52 52 -118 52 -37 1 -43 -2 -49 -22z"/>
</g>
</svg>
